<svg xmlns="http://www.w3.org/2000/svg" viewBox="0 0 800 600" width="800" height="600">
  <!-- Background -->
  <rect width="800" height="600" fill="#f5f5f5"/>
  
  <!-- Office Building -->
  <rect x="200" y="100" width="400" height="400" fill="#e0e0e0" stroke="#333333" stroke-width="8"/>
  
  <!-- Windows -->
  <g id="windows">
    <!-- Row 1 -->
    <rect x="230" y="130" width="60" height="60" fill="#87ceeb" stroke="#333333" stroke-width="2"/>
    <rect x="310" y="130" width="60" height="60" fill="#87ceeb" stroke="#333333" stroke-width="2"/>
    <rect x="390" y="130" width="60" height="60" fill="#87ceeb" stroke="#333333" stroke-width="2"/>
    <rect x="470" y="130" width="60" height="60" fill="#87ceeb" stroke="#333333" stroke-width="2"/>
    
    <!-- Row 2 -->
    <rect x="230" y="210" width="60" height="60" fill="#87ceeb" stroke="#333333" stroke-width="2"/>
    <rect x="310" y="210" width="60" height="60" fill="#87ceeb" stroke="#333333" stroke-width="2"/>
    <rect x="390" y="210" width="60" height="60" fill="#87ceeb" stroke="#333333" stroke-width="2"/>
    <rect x="470" y="210" width="60" height="60" fill="#87ceeb" stroke="#333333" stroke-width="2"/>
    
    <!-- Row 3 -->
    <rect x="230" y="290" width="60" height="60" fill="#87ceeb" stroke="#333333" stroke-width="2"/>
    <rect x="310" y="290" width="60" height="60" fill="#87ceeb" stroke="#333333" stroke-width="2"/>
    <rect x="390" y="290" width="60" height="60" fill="#87ceeb" stroke="#333333" stroke-width="2"/>
    <rect x="470" y="290" width="60" height="60" fill="#87ceeb" stroke="#333333" stroke-width="2"/>
    
    <!-- Row 4 (Ground Floor) -->
    <rect x="230" y="370" width="60" height="60" fill="#87ceeb" stroke="#333333" stroke-width="2"/>
    <rect x="310" y="370" width="60" height="60" fill="#87ceeb" stroke="#333333" stroke-width="2"/>
    <rect x="470" y="370" width="60" height="60" fill="#87ceeb" stroke="#333333" stroke-width="2"/>
  </g>
  
  <!-- Door -->
  <rect x="390" y="370" width="60" height="130" fill="#4a7aff" stroke="#333333" stroke-width="4"/>
  <circle cx="440" cy="435" r="5" fill="#ffd700"/>
  
  <!-- Cleaning elements -->
  <g id="cleaning-bubbles" fill-opacity="0.7">
    <circle cx="150" cy="200" r="30" fill="#ffffff" stroke="#333333" stroke-width="2"/>
    <circle cx="170" cy="180" r="25" fill="#ffffff" stroke="#333333" stroke-width="2"/>
    <circle cx="130" cy="180" r="20" fill="#ffffff" stroke="#333333" stroke-width="2"/>
    
    <circle cx="650" cy="300" r="30" fill="#ffffff" stroke="#333333" stroke-width="2"/>
    <circle cx="670" cy="280" r="25" fill="#ffffff" stroke="#333333" stroke-width="2"/>
    <circle cx="630" cy="280" r="20" fill="#ffffff" stroke="#333333" stroke-width="2"/>
  </g>
  
  <!-- Cleaning Person -->
  <g id="cleaner">
    <!-- Body -->
    <rect x="100" y="400" width="60" height="100" rx="10" fill="#4a7aff" stroke="#333333" stroke-width="3"/>
    
    <!-- Head -->
    <circle cx="130" cy="380" r="20" fill="#ffd700" stroke="#333333" stroke-width="3"/>
    
    <!-- Arms -->
    <line x1="100" y1="420" x2="60" y2="400" stroke="#4a7aff" stroke-width="10" stroke-linecap="round"/>
    <line x1="160" y1="420" x2="200" y2="400" stroke="#4a7aff" stroke-width="10" stroke-linecap="round"/>
    
    <!-- Legs -->
    <line x1="115" y1="500" x2="115" y2="550" stroke="#333333" stroke-width="10" stroke-linecap="round"/>
    <line x1="145" y1="500" x2="145" y2="550" stroke="#333333" stroke-width="10" stroke-linecap="round"/>
    
    <!-- Cleaning Tool -->
    <rect x="60" y="350" width="10" height="100" fill="#8b4513" stroke="#333333" stroke-width="2" transform="rotate(-30, 60, 350)"/>
    <path d="M40 300C40 300 20 280 40 260C60 240 80 260 80 260" fill="#4a7aff" stroke="#333333" stroke-width="3"/>
  </g>
  
  <!-- Sparkles to indicate cleanliness -->
  <g id="sparkles" fill="#ffd700">
    <path d="M250 100L260 120L270 100L260 80Z"/>
    <path d="M550 150L560 170L570 150L560 130Z"/>
    <path d="M400 50L410 70L420 50L410 30Z"/>
    <path d="M300 500L310 520L320 500L310 480Z"/>
    <path d="M500 500L510 520L520 500L510 480Z"/>
    <path d="M700 400L710 420L720 400L710 380Z"/>
  </g>
</svg>