<svg xmlns="http://www.w3.org/2000/svg" viewBox="0 0 800 600" width="800" height="600">
  <!-- Background -->
  <rect width="800" height="600" fill="#f5f5f5"/>
  
  <!-- Sofa -->
  <g id="sofa">
    <!-- Main body -->
    <rect x="200" y="300" width="400" height="150" rx="20" fill="#8b4513" stroke="#333333" stroke-width="6"/>
    
    <!-- Back cushion -->
    <rect x="200" y="200" width="400" height="100" rx="15" fill="#a0522d" stroke="#333333" stroke-width="6"/>
    
    <!-- Arm rests -->
    <rect x="150" y="250" width="50" height="200" rx="15" fill="#a0522d" stroke="#333333" stroke-width="6"/>
    <rect x="600" y="250" width="50" height="200" rx="15" fill="#a0522d" stroke="#333333" stroke-width="6"/>
    
    <!-- Seat cushions -->
    <rect x="220" y="300" width="110" height="80" rx="10" fill="#cd853f" stroke="#333333" stroke-width="3"/>
    <rect x="345" y="300" width="110" height="80" rx="10" fill="#cd853f" stroke="#333333" stroke-width="3"/>
    <rect x="470" y="300" width="110" height="80" rx="10" fill="#cd853f" stroke="#333333" stroke-width="3"/>
    
    <!-- Decorative buttons -->
    <circle cx="275" cy="340" r="5" fill="#333333"/>
    <circle cx="400" cy="340" r="5" fill="#333333"/>
    <circle cx="525" cy="340" r="5" fill="#333333"/>
    
    <!-- Legs -->
    <rect x="180" y="450" width="20" height="30" fill="#5e3a1a" stroke="#333333" stroke-width="2"/>
    <rect x="600" y="450" width="20" height="30" fill="#5e3a1a" stroke="#333333" stroke-width="2"/>
    <rect x="250" y="450" width="20" height="30" fill="#5e3a1a" stroke="#333333" stroke-width="2"/>
    <rect x="530" y="450" width="20" height="30" fill="#5e3a1a" stroke="#333333" stroke-width="2"/>
  </g>
  
  <!-- Cleaning elements -->
  <g id="cleaning-elements">
    <!-- Vacuum cleaner -->
    <g id="vacuum" transform="translate(100, 400) rotate(-15)">
      <!-- Body -->
      <rect x="0" y="0" width="80" height="120" rx="10" fill="#4a7aff" stroke="#333333" stroke-width="3"/>
      
      <!-- Handle -->
      <rect x="30" y="-80" width="20" height="80" fill="#333333" stroke="#333333" stroke-width="2"/>
      
      <!-- Hose -->
      <path d="M50 30 C80 0, 120 50, 150 80" fill="none" stroke="#333333" stroke-width="10" stroke-linecap="round"/>
      
      <!-- Vacuum head -->
      <rect x="150" y="70" width="60" height="20" rx="5" fill="#333333" stroke="#333333" stroke-width="2"/>
      
      <!-- Wheels -->
      <circle cx="20" cy="120" r="10" fill="#333333"/>
      <circle cx="60" cy="120" r="10" fill="#333333"/>
    </g>
    
    <!-- Spray bottle -->
    <g id="spray-bottle" transform="translate(650, 350)">
      <!-- Bottle body -->
      <rect x="0" y="20" width="40" height="80" rx="5" fill="#4a7aff" stroke="#333333" stroke-width="2"/>
      
      <!-- Bottle neck -->
      <rect x="10" y="0" width="20" height="20" fill="#333333" stroke="#333333" stroke-width="2"/>
      
      <!-- Spray nozzle -->
      <rect x="-10" y="5" width="20" height="10" fill="#333333" stroke="#333333" stroke-width="2"/>
      
      <!-- Trigger -->
      <path d="M15 15 L-5 25" stroke="#333333" stroke-width="3" stroke-linecap="round"/>
    </g>
  </g>
  
  <!-- Cleaning bubbles -->
  <g id="bubbles" fill-opacity="0.7">
    <circle cx="250" cy="250" r="20" fill="#ffffff" stroke="#333333" stroke-width="2"/>
    <circle cx="270" cy="230" r="15" fill="#ffffff" stroke="#333333" stroke-width="2"/>
    <circle cx="230" cy="230" r="12" fill="#ffffff" stroke="#333333" stroke-width="2"/>
    
    <circle cx="450" cy="200" r="25" fill="#ffffff" stroke="#333333" stroke-width="2"/>
    <circle cx="470" cy="180" r="20" fill="#ffffff" stroke="#333333" stroke-width="2"/>
    <circle cx="430" cy="180" r="15" fill="#ffffff" stroke="#333333" stroke-width="2"/>
    
    <circle cx="550" cy="300" r="18" fill="#ffffff" stroke="#333333" stroke-width="2"/>
    <circle cx="570" cy="280" r="14" fill="#ffffff" stroke="#333333" stroke-width="2"/>
    <circle cx="530" cy="280" r="10" fill="#ffffff" stroke="#333333" stroke-width="2"/>
  </g>
  
  <!-- Sparkles to indicate cleanliness -->
  <g id="sparkles" fill="#ffd700">
    <path d="M200 150L210 170L220 150L210 130Z"/>
    <path d="M600 200L610 220L620 200L610 180Z"/>
    <path d="M400 100L410 120L420 100L410 80Z"/>
    <path d="M300 400L310 420L320 400L310 380Z"/>
    <path d="M500 450L510 470L520 450L510 430Z"/>
  </g>
</svg>