<svg xmlns="http://www.w3.org/2000/svg" viewBox="0 0 800 600" width="800" height="600">
  <!-- Background -->
  <rect width="800" height="600" fill="#f5f5f5"/>
  
  <!-- Building under construction -->
  <g id="building">
    <!-- Foundation -->
    <rect x="150" y="400" width="500" height="50" fill="#a0a0a0" stroke="#333333" stroke-width="4"/>
    
    <!-- Main structure -->
    <rect x="200" y="200" width="400" height="200" fill="#e0e0e0" stroke="#333333" stroke-width="4" stroke-dasharray="10,5"/>
    
    <!-- Roof frame -->
    <path d="M150 200L400 100L650 200" fill="none" stroke="#333333" stroke-width="6" stroke-dasharray="15,5"/>
    
    <!-- Scaffolding -->
    <g id="scaffolding" stroke="#333333" stroke-width="4">
      <!-- Left side -->
      <line x1="150" y1="200" x2="150" y2="450" stroke="#4a7aff"/>
      <line x1="180" y1="200" x2="180" y2="450" stroke="#4a7aff"/>
      
      <!-- Right side -->
      <line x1="650" y1="200" x2="650" y2="450" stroke="#4a7aff"/>
      <line x1="620" y1="200" x2="620" y2="450" stroke="#4a7aff"/>
      
      <!-- Horizontal supports -->
      <line x1="150" y1="250" x2="180" y2="250" stroke="#4a7aff"/>
      <line x1="150" y1="300" x2="180" y2="300" stroke="#4a7aff"/>
      <line x1="150" y1="350" x2="180" y2="350" stroke="#4a7aff"/>
      <line x1="150" y1="400" x2="180" y2="400" stroke="#4a7aff"/>
      
      <line x1="620" y1="250" x2="650" y2="250" stroke="#4a7aff"/>
      <line x1="620" y1="300" x2="650" y2="300" stroke="#4a7aff"/>
      <line x1="620" y1="350" x2="650" y2="350" stroke="#4a7aff"/>
      <line x1="620" y1="400" x2="650" y2="400" stroke="#4a7aff"/>
    </g>
    
    <!-- Construction materials -->
    <g id="materials">
      <!-- Bricks -->
      <rect x="250" y="350" width="100" height="50" fill="#cd5c5c" stroke="#333333" stroke-width="2"/>
      
      <!-- Lumber -->
      <rect x="450" y="350" width="120" height="20" fill="#8b4513" stroke="#333333" stroke-width="2"/>
      <rect x="450" y="375" width="120" height="20" fill="#8b4513" stroke="#333333" stroke-width="2"/>
      
      <!-- Cement bags -->
      <rect x="100" y="450" width="40" height="60" rx="5" fill="#a0a0a0" stroke="#333333" stroke-width="2"/>
      <rect x="145" y="450" width="40" height="60" rx="5" fill="#a0a0a0" stroke="#333333" stroke-width="2"/>
    </g>
  </g>
  
  <!-- Cleaning elements -->
  <g id="cleaning-elements">
    <!-- Cleaning person -->
    <g id="cleaner" transform="translate(350, 450)">
      <!-- Body -->
      <rect x="0" y="0" width="40" height="80" rx="10" fill="#4a7aff" stroke="#333333" stroke-width="3"/>
      
      <!-- Head -->
      <circle cx="20" cy="-20" r="15" fill="#ffd700" stroke="#333333" stroke-width="3"/>
      
      <!-- Arms -->
      <line x1="0" y1="20" x2="-30" y2="10" stroke="#4a7aff" stroke-width="8" stroke-linecap="round"/>
      <line x1="40" y1="20" x2="70" y2="10" stroke="#4a7aff" stroke-width="8" stroke-linecap="round"/>
      
      <!-- Legs -->
      <line x1="10" y1="80" x2="10" y2="120" stroke="#333333" stroke-width="8" stroke-linecap="round"/>
      <line x1="30" y1="80" x2="30" y2="120" stroke="#333333" stroke-width="8" stroke-linecap="round"/>
    </g>
    
    <!-- Broom -->
    <g id="broom" transform="translate(420, 460) rotate(-30)">
      <rect x="0" y="0" width="10" height="100" fill="#8b4513" stroke="#333333" stroke-width="2"/>
      <path d="M0 100 L-20 150 L20 150 L0 100" fill="#d2b48c" stroke="#333333" stroke-width="2"/>
      <path d="M-20 150 L-25 170 M-10 150 L-15 170 M0 150 L-5 170 M10 150 L5 170 M20 150 L15 170" stroke="#d2b48c" stroke-width="3"/>
    </g>
    
    <!-- Dust pan -->
    <path d="M280 500 L320 500 L330 520 L270 520 Z" fill="#4a7aff" stroke="#333333" stroke-width="2"/>
    <rect x="290" y="480" width="20" height="20" fill="#333333"/>
  </g>
  
  <!-- Cleaning bubbles -->
  <g id="bubbles" fill-opacity="0.7">
    <circle cx="250" cy="250" r="20" fill="#ffffff" stroke="#333333" stroke-width="2"/>
    <circle cx="270" cy="230" r="15" fill="#ffffff" stroke="#333333" stroke-width="2"/>
    <circle cx="230" cy="230" r="12" fill="#ffffff" stroke="#333333" stroke-width="2"/>
    
    <circle cx="550" cy="300" r="25" fill="#ffffff" stroke="#333333" stroke-width="2"/>
    <circle cx="570" cy="280" r="20" fill="#ffffff" stroke="#333333" stroke-width="2"/>
    <circle cx="530" cy="280" r="15" fill="#ffffff" stroke="#333333" stroke-width="2"/>
  </g>
  
  <!-- Debris being cleaned -->
  <g id="debris">
    <circle cx="300" cy="520" r="5" fill="#a0a0a0"/>
    <circle cx="320" cy="530" r="3" fill="#a0a0a0"/>
    <circle cx="340" cy="525" r="4" fill="#a0a0a0"/>
    <rect x="310" y="528" width="8" height="4" fill="#8b4513" transform="rotate(30, 310, 528)"/>
    <rect x="330" y="520" width="10" height="3" fill="#8b4513" transform="rotate(-15, 330, 520)"/>
  </g>
  
  <!-- Sparkles to indicate cleanliness -->
  <g id="sparkles" fill="#ffd700">
    <path d="M200 150L210 170L220 150L210 130Z"/>
    <path d="M600 200L610 220L620 200L610 180Z"/>
    <path d="M400 100L410 120L420 100L410 80Z"/>
    <path d="M300 400L310 420L320 400L310 380Z"/>
    <path d="M500 450L510 470L520 450L510 430Z"/>
  </g>
</svg>